<svg width="24" height="24" viewBox="0 0 24 24" fill="none" xmlns="http://www.w3.org/2000/svg">
<path d="M20.8281 13.2188L19.5781 12.4766C19.6172 12.1641 19.6172 11.8516 19.6172 11.5C19.6172 11.1875 19.6172 10.875 19.5781 10.5625L20.8281 9.82031C21.2188 9.625 21.375 9.15625 21.2578 8.76562C20.8281 7.28125 20.0469 5.95312 19.0312 4.85938C18.7188 4.54688 18.25 4.46875 17.8594 4.70312L16.6094 5.44531C16.1016 5.05469 15.5547 4.74219 14.9297 4.46875V3.02344C14.9297 2.55469 14.6562 2.20312 14.2266 2.08594C12.7422 1.73438 11.2188 1.73438 9.73438 2.08594C9.30469 2.20312 9.03125 2.55469 9.03125 3.02344V4.46875C8.40625 4.74219 7.85938 5.05469 7.35156 5.44531L6.10156 4.70312C5.71094 4.46875 5.24219 4.54688 4.92969 4.85938C3.91406 5.95312 3.13281 7.28125 2.70312 8.76562C2.58594 9.15625 2.74219 9.625 3.13281 9.82031L4.38281 10.5625C4.34375 10.875 4.34375 11.1875 4.34375 11.5391C4.34375 11.8516 4.34375 12.1641 4.38281 12.4766L3.13281 13.2188C2.74219 13.4141 2.58594 13.8828 2.70312 14.2734C3.13281 15.7578 3.91406 17.0859 4.92969 18.1797C5.24219 18.4922 5.71094 18.5703 6.10156 18.3359L7.35156 17.5938C7.85938 17.9844 8.40625 18.2969 9.03125 18.5703V20.0156C9.03125 20.4844 9.30469 20.8359 9.73438 20.9531C11.2188 21.3047 12.7422 21.3047 14.2266 20.9531C14.6562 20.8359 14.9297 20.4844 14.9297 20.0156V18.5703C15.5547 18.2969 16.1016 17.9844 16.6094 17.5938L17.8594 18.3359C18.25 18.5703 18.7188 18.4922 19.0312 18.1797C20.0469 17.0859 20.8281 15.7578 21.2578 14.2734C21.375 13.8828 21.2188 13.4141 20.8281 13.2188ZM18.2891 17.125L16.4531 16.0703C15.3984 17.0078 15.0469 17.2031 13.6797 17.7109V19.7812C13.1328 19.8984 12.5469 19.9766 11.9609 19.9766C11.375 19.9766 10.8281 19.8984 10.2812 19.7812V17.7109C8.95312 17.2422 8.5625 17.0078 7.50781 16.0703L5.67188 17.125C4.92969 16.2656 4.34375 15.25 3.95312 14.1562L5.78906 13.1406C5.51562 11.7344 5.51562 11.3047 5.78906 9.89844L3.95312 8.88281C4.34375 7.78906 4.92969 6.77344 5.67188 5.91406L7.50781 6.96875C8.5625 6.03125 8.95312 5.79688 10.2812 5.32812V3.25781C10.8281 3.14062 11.4141 3.0625 12 3.0625C12.5859 3.0625 13.1328 3.14062 13.6797 3.25781V5.32812C15.0078 5.79688 15.3984 6.03125 16.4531 6.96875L18.2891 5.91406C19.0312 6.77344 19.6172 7.78906 20.0078 8.88281L18.1719 9.89844C18.4453 11.3047 18.4453 11.7344 18.1719 13.1406L20.0078 14.1562C19.6172 15.25 19.0312 16.2656 18.2891 17.125ZM12 7.75C9.92969 7.75 8.25 9.46875 8.25 11.5C8.25 13.5703 9.92969 15.25 12 15.25C14.0312 15.25 15.75 13.5703 15.75 11.5C15.75 9.46875 14.0312 7.75 12 7.75ZM12 14C10.5938 14 9.5 12.9062 9.5 11.5C9.5 10.1328 10.5938 9 12 9C13.3672 9 14.5 10.1328 14.5 11.5C14.5 12.9062 13.3672 14 12 14Z" fill="#808080" fill-opacity="0.4"/>
</svg>
